<svg width="100" height="32" viewBox="0 0 100 32" fill="none" xmlns="http://www.w3.org/2000/svg">
<path d="M72.6875 1.76704C70.3602 0.916579 67.9028 0.48775 65.4281 0.500266C57.4375 0.500266 51.7906 4.58176 51.7563 10.4228C51.6906 14.716 55.7594 17.1358 58.8344 18.5827C61.9937 20.0643 63.05 20.9867 63.0344 22.3009C63.0187 24.3258 60.5094 25.2293 58.2 25.2293C54.9906 25.2293 53.25 24.787 50.5656 23.6498L49.5688 23.1728L48.4313 29.9205C50.3844 30.726 53.8844 31.4337 57.4969 31.5C66.0094 31.5 71.5594 27.4533 71.6219 21.2141C71.6875 17.7929 69.5094 15.1962 64.8688 13.0543C62.0687 11.6738 60.3156 10.7324 60.3156 9.31717C60.3156 8.06619 61.8125 6.75202 64.9375 6.75202C67.0113 6.6995 69.0731 7.0858 70.9906 7.88612L71.7562 8.23046L72.8781 1.7323L72.6875 1.76704ZM93.4594 1.05942H87.2094C85.2562 1.05942 83.8063 1.58698 82.9437 3.54559L70.9313 31.0704H79.4281L81.1406 26.5624L91.5062 26.5782C91.7656 27.6302 92.4969 31.0672 92.4969 31.0672H100L93.4594 1.05942ZM40.25 0.813012H48.3406L43.2781 30.8366H35.1875L40.25 0.797216V0.813012ZM19.6781 17.3475L20.5062 21.5269L28.4312 1.05942H37.0094L24.2469 31.0198H15.7063L8.70625 5.64951C8.65262 5.43877 8.55707 5.24129 8.42544 5.06911C8.2938 4.89694 8.12884 4.75368 7.94062 4.6481C5.4262 3.32606 2.75884 2.32538 0 1.66911L0.096875 1.04046H13.15C14.9094 1.1068 16.3406 1.66911 16.8281 3.57718L19.6781 17.3633V17.3475ZM83.4469 20.4244L86.6875 12.0182C86.6375 12.0971 87.3531 10.2902 87.7594 9.1529L88.3125 11.7338L90.1875 20.4054H83.4469V20.4244Z" fill="white"/>
</svg>
